# l_room_1000m3
# source: 4.0 1.2 -8.0
# mic:    14.0 1.2 -4.0
v 0.000000 10.000000 0.000000
v 15.000000 10.000000 0.000000
v 15.000000 0.000000 -0.000000
v 0.000000 0.000000 -0.000000
v 15.000000 10.000000 -5.000000
v 15.000000 0.000000 -5.000000
v 5.000000 0.000000 -5.000000
v 5.000000 10.000000 -5.000000
v 5.000000 10.000000 -10.000000
v 5.000000 0.000000 -10.000000
v 0.000000 0.000000 -10.000000
v 0.000000 10.000000 -10.000000
v 5.000000 0.000000 -0.000000
v 5.000000 10.000000 -0.000000
o wall1
f 1 2 3
f 1 3 4
o wall2
f 5 6 3
f 5 3 2
o wall3
f 7 6 5
f 7 5 8
o wall4
f 9 10 7
f 9 7 8
o wall5
f 11 10 9
f 11 9 12
o wall6
f 1 4 11
f 1 11 12
o floor1
f 4 13 10
f 4 10 11
o floor2
f 13 3 6
f 13 6 7
o ceil1
f 12 9 14
f 12 14 1
o ceil2
f 8 5 2
f 8 2 14
