# shoebox_diffuse_1000m3
# source: 3.4199518933533937 2.0519711360120363 -4.274939866691742
# mic:    8.549879733383484 2.0519711360120363 -4.274939866691742
v 0.000000 8.549880 -0.000000
v -0.000000 0.000000 -0.000000
v -0.000000 0.000000 -8.549879
v 0.000000 8.549880 -8.549879
v 13.679808 8.549880 -8.549879
v 13.679808 0.000000 -8.549879
v 13.679808 0.000000 -0.000000
v 13.679808 8.549880 -0.000000
o wall_x0
f 1 2 3
f 1 3 4
o wall_x1
f 5 6 7
f 5 7 8
o wall_y0
f 1 8 7
f 1 7 2
o wall_y1
f 3 6 5
f 3 5 4
o floor
f 2 7 6
f 2 6 3
o ceiling
f 4 5 8
f 4 8 1
