# shoebox_diffuse_5000m3
# source: 5.848035476425732 3.508821285855439 -7.310044345532165
# mic:    14.62008869106433 3.508821285855439 -7.310044345532165
v 0.000000 14.620089 -0.000000
v -0.000000 0.000000 -0.000000
v -0.000000 0.000000 -14.620089
v 0.000000 14.620089 -14.620089
v 23.392141 14.620089 -14.620089
v 23.392141 0.000000 -14.620089
v 23.392141 0.000000 -0.000000
v 23.392141 14.620089 -0.000000
o wall_x0
f 1 2 3
f 1 3 4
o wall_x1
f 5 6 7
f 5 7 8
o wall_y0
f 1 8 7
f 1 7 2
o wall_y1
f 3 6 5
f 3 5 4
o floor
f 2 7 6
f 2 6 3
o ceiling
f 4 5 8
f 4 8 1
